<mxfile host="app.diagrams.net" modified="2023-10-22T19:36:14.825Z" agent="Mozilla/5.0 (Windows NT 10.0; Win64; x64) AppleWebKit/537.36 (KHTML, like Gecko) Chrome/116.0.0.0 Safari/537.36 OPR/102.0.0.0" etag="nKKgVQ3hnYe3RTW9SslR" version="22.0.6" type="github">
  <diagram name="Página-1" id="GrdWI4Xex0_40aSLjNx8">
    <mxGraphModel dx="1578" dy="887" grid="0" gridSize="10" guides="1" tooltips="1" connect="1" arrows="1" fold="1" page="1" pageScale="1" pageWidth="1100" pageHeight="850" math="0" shadow="0">
      <root>
        <mxCell id="0" />
        <mxCell id="1" parent="0" />
        <mxCell id="1cbcMMZBRTgS8novLpQM-2" value="Ingresa a la pagina: www.GYMBRO.com" style="ellipse;whiteSpace=wrap;html=1;" parent="1" vertex="1">
          <mxGeometry x="486" y="82" width="160" height="80" as="geometry" />
        </mxCell>
        <mxCell id="1cbcMMZBRTgS8novLpQM-3" value="El usuario proporciona el correo y contraseña previamente creados" style="ellipse;whiteSpace=wrap;html=1;" parent="1" vertex="1">
          <mxGeometry x="486" y="202" width="160" height="80" as="geometry" />
        </mxCell>
        <mxCell id="1cbcMMZBRTgS8novLpQM-5" value="El administrador valida las credenciales dadas&amp;nbsp;" style="ellipse;whiteSpace=wrap;html=1;" parent="1" vertex="1">
          <mxGeometry x="486" y="322" width="160" height="80" as="geometry" />
        </mxCell>
        <mxCell id="1cbcMMZBRTgS8novLpQM-7" value="Si las credenciales son validas, el sistema iniciara sesión y redirigirá al usuario al dashboard" style="ellipse;whiteSpace=wrap;html=1;rotation=0;" parent="1" vertex="1">
          <mxGeometry x="486" y="442" width="160" height="80" as="geometry" />
        </mxCell>
        <mxCell id="1cbcMMZBRTgS8novLpQM-9" value="&lt;b&gt;&lt;font style=&quot;font-size: 18px;&quot;&gt;Inicio de sesión de usuario&amp;nbsp;&lt;/font&gt;&lt;/b&gt;" style="text;html=1;align=center;verticalAlign=middle;resizable=0;points=[];autosize=1;strokeColor=none;fillColor=none;" parent="1" vertex="1">
          <mxGeometry x="439" y="8" width="254" height="34" as="geometry" />
        </mxCell>
        <mxCell id="1cbcMMZBRTgS8novLpQM-10" value="El usuario accede a la pagina ´principal de la aplicación web" style="ellipse;whiteSpace=wrap;html=1;" parent="1" vertex="1">
          <mxGeometry x="486" y="562" width="160" height="80" as="geometry" />
        </mxCell>
        <mxCell id="1cbcMMZBRTgS8novLpQM-15" value="Usuario" style="shape=umlActor;verticalLabelPosition=bottom;verticalAlign=top;html=1;outlineConnect=0;" parent="1" vertex="1">
          <mxGeometry x="46" y="382" width="150" height="240" as="geometry" />
        </mxCell>
        <mxCell id="1cbcMMZBRTgS8novLpQM-17" value="Administrador" style="shape=umlActor;verticalLabelPosition=bottom;verticalAlign=top;html=1;outlineConnect=0;" parent="1" vertex="1">
          <mxGeometry x="886" y="402" width="150" height="240" as="geometry" />
        </mxCell>
        <mxCell id="1cbcMMZBRTgS8novLpQM-18" value="" style="endArrow=classic;html=1;rounded=0;entryX=0;entryY=0.5;entryDx=0;entryDy=0;" parent="1" source="1cbcMMZBRTgS8novLpQM-15" target="1cbcMMZBRTgS8novLpQM-2" edge="1">
          <mxGeometry width="50" height="50" relative="1" as="geometry">
            <mxPoint x="196" y="392" as="sourcePoint" />
            <mxPoint x="446" y="152" as="targetPoint" />
          </mxGeometry>
        </mxCell>
        <mxCell id="1cbcMMZBRTgS8novLpQM-19" value="" style="endArrow=classic;html=1;rounded=0;entryX=0;entryY=0.5;entryDx=0;entryDy=0;" parent="1" source="1cbcMMZBRTgS8novLpQM-15" target="1cbcMMZBRTgS8novLpQM-3" edge="1">
          <mxGeometry width="50" height="50" relative="1" as="geometry">
            <mxPoint x="206" y="402" as="sourcePoint" />
            <mxPoint x="476" y="242" as="targetPoint" />
          </mxGeometry>
        </mxCell>
        <mxCell id="1cbcMMZBRTgS8novLpQM-20" value="" style="endArrow=classic;html=1;rounded=0;entryX=1;entryY=0.5;entryDx=0;entryDy=0;" parent="1" target="1cbcMMZBRTgS8novLpQM-5" edge="1">
          <mxGeometry width="50" height="50" relative="1" as="geometry">
            <mxPoint x="886" y="482" as="sourcePoint" />
            <mxPoint x="676" y="362" as="targetPoint" />
          </mxGeometry>
        </mxCell>
        <mxCell id="1cbcMMZBRTgS8novLpQM-22" value="" style="endArrow=classic;html=1;rounded=0;entryX=0;entryY=0.5;entryDx=0;entryDy=0;" parent="1" target="1cbcMMZBRTgS8novLpQM-10" edge="1">
          <mxGeometry width="50" height="50" relative="1" as="geometry">
            <mxPoint x="196" y="562" as="sourcePoint" />
            <mxPoint x="476" y="543" as="targetPoint" />
          </mxGeometry>
        </mxCell>
        <mxCell id="UGRZ9ScIeLS2qVs-IvBd-1" value="" style="endArrow=classic;html=1;rounded=0;entryX=1;entryY=0.5;entryDx=0;entryDy=0;" edge="1" parent="1" target="1cbcMMZBRTgS8novLpQM-7">
          <mxGeometry width="50" height="50" relative="1" as="geometry">
            <mxPoint x="886" y="542" as="sourcePoint" />
            <mxPoint x="646" y="422" as="targetPoint" />
          </mxGeometry>
        </mxCell>
      </root>
    </mxGraphModel>
  </diagram>
</mxfile>
